# Blender v2.76 (sub 0) OBJ File: ''
# www.blender.org
mtllib cube_thing.mtl
o Cube_Cube.002
v -5.000000 0.000000 5.000000
v -5.000000 10.000000 5.000000
v -5.000000 0.000000 -5.000000
v -5.000000 10.000000 -5.000000
v 5.000000 0.000000 5.000000
v 5.000000 10.000000 5.000000
v 5.000000 0.000000 -5.000000
v 5.000000 10.000000 -5.000000
v -5.000000 2.166583 2.828192
v -5.000000 2.550761 3.166360
v -5.000000 2.976178 3.453745
v -5.000000 3.438059 3.685573
v -5.000000 3.931634 3.857074
v -5.000000 4.452129 3.963476
v -5.000000 4.994770 4.000002
v -5.000000 5.537413 3.963478
v -5.000000 6.057908 3.857077
v -5.000000 6.551482 3.685573
v -5.000000 7.013364 3.453744
v -5.000000 7.438779 3.166360
v -5.000000 7.822958 2.828192
v -5.000000 8.161125 2.444013
v -5.000000 8.448510 2.018596
v -5.000000 8.680340 1.556715
v -5.000000 8.851844 1.063141
v -5.000000 8.958242 0.542647
v -5.000000 8.994771 0.000004
v -5.000000 8.958244 -0.542638
v -5.000000 8.851844 -1.063133
v -5.000000 8.680344 -1.556707
v -5.000000 8.448512 -2.018589
v -5.000000 8.161127 -2.444005
v -5.000000 7.822959 -2.828183
v -5.000000 7.438782 -3.166353
v -5.000000 7.013364 -3.453737
v -5.000000 6.551482 -3.685566
v -5.000000 6.057907 -3.857069
v -5.000000 5.537413 -3.963469
v -5.000000 4.994771 -3.999996
v -5.000000 4.452129 -3.963468
v -5.000000 3.931634 -3.857069
v -5.000000 3.438060 -3.685567
v -5.000000 2.976178 -3.453737
v -5.000000 2.550761 -3.166354
v -5.000000 2.166582 -2.828185
v -5.000000 1.828414 -2.444005
v -5.000000 1.541030 -2.018589
v -5.000000 1.309201 -1.556707
v -5.000000 1.137700 -1.063133
v -5.000000 1.031298 -0.542638
v -5.000000 0.994771 0.000004
v -5.000000 1.031298 0.542647
v -5.000000 1.137699 1.063141
v -5.000000 1.309201 1.556715
v -5.000000 1.541029 2.018596
v -5.000000 1.828415 2.444013
v 5.000000 2.166582 2.828192
v 5.000000 2.550760 3.166358
v 5.000000 2.976178 3.453745
v 5.000000 3.438060 3.685574
v 5.000000 3.931634 3.857074
v 5.000000 4.452128 3.963478
v 5.000000 4.994770 4.000003
v 5.000000 5.537414 3.963478
v 5.000000 6.057908 3.857077
v 5.000000 6.551482 3.685574
v 5.000000 7.013363 3.453745
v 5.000000 7.438781 3.166359
v 5.000000 7.822958 2.828192
v 5.000000 8.161127 2.444013
v 5.000000 8.448512 2.018597
v 5.000000 8.680340 1.556715
v 5.000000 8.851841 1.063141
v 5.000000 8.958244 0.542647
v 5.000000 8.994770 0.000003
v 5.000000 8.958244 -0.542639
v 5.000000 8.851843 -1.063132
v 5.000000 8.680342 -1.556707
v 5.000000 8.448513 -2.018589
v 5.000000 8.161127 -2.444005
v 5.000000 7.822958 -2.828183
v 5.000000 7.438781 -3.166353
v 5.000000 7.013363 -3.453737
v 5.000000 6.551482 -3.685567
v 5.000000 6.057908 -3.857067
v 5.000000 5.537414 -3.963466
v 5.000000 4.994771 -3.999994
v 5.000000 4.452128 -3.963470
v 5.000000 3.931634 -3.857067
v 5.000000 3.438060 -3.685566
v 5.000000 2.976178 -3.453737
v 5.000000 2.550761 -3.166352
v 5.000000 2.166583 -2.828183
v 5.000000 1.828415 -2.444007
v 5.000000 1.541030 -2.018589
v 5.000000 1.309201 -1.556707
v 5.000000 1.137699 -1.063132
v 5.000000 1.031298 -0.542639
v 5.000000 0.994771 0.000003
v 5.000000 1.031298 0.542647
v 5.000000 1.137698 1.063141
v 5.000000 1.309201 1.556715
v 5.000000 1.541028 2.018597
v 5.000000 1.828415 2.444013
vt 0.140981 0.472792
vt 0.367117 0.052848
vt 0.365816 0.057739
vt 0.087258 0.620067
vt 0.064498 0.512436
vt 0.000069 0.314601
vt 0.053433 0.270652
vt 0.108882 0.561693
vt 0.073806 0.417036
vt 0.177884 0.047812
vt 0.218374 0.042701
vt 0.177747 0.999931
vt 0.781283 0.070719
vt 0.754891 0.076745
vt 0.616694 0.054885
vt 0.618982 0.049957
vt 0.352852 0.022385
vt 0.707937 0.097746
vt 0.716277 0.094289
vt 0.346824 0.016565
vt 0.701099 0.101709
vt 0.341231 0.013409
vt 0.691979 0.102721
vt 0.334536 0.010175
vt 0.683965 0.104206
vt 0.326663 0.006563
vt 0.677247 0.106343
vt 0.318241 0.003593
vt 0.670733 0.107923
vt 0.308666 0.000069
vt 0.665496 0.110053
vt 0.656613 0.106128
vt 0.296401 0.005317
vt 0.648876 0.102736
vt 0.289484 0.008252
vt 0.641730 0.098762
vt 0.281238 0.010545
vt 0.635765 0.095134
vt 0.271869 0.012382
vt 0.630915 0.091561
vt 0.265073 0.017194
vt 0.625715 0.085655
vt 0.256732 0.021529
vt 0.621780 0.080144
vt 0.248787 0.026819
vt 0.618852 0.074833
vt 0.239361 0.031892
vt 0.617148 0.070003
vt 0.229611 0.037441
vt 0.615864 0.064794
vt 0.615810 0.059796
vt 0.201562 0.054522
vt 0.216567 0.061169
vt 0.619834 0.046126
vt 0.230000 0.068156
vt 0.622012 0.042104
vt 0.241349 0.073471
vt 0.625123 0.038073
vt 0.251178 0.078998
vt 0.629544 0.033567
vt 0.260671 0.083952
vt 0.634723 0.029276
vt 0.268546 0.089360
vt 0.641253 0.024610
vt 0.278680 0.091393
vt 0.647136 0.022327
vt 0.287632 0.093840
vt 0.654165 0.020034
vt 0.295192 0.096892
vt 0.662449 0.017429
vt 0.302607 0.099280
vt 0.671202 0.015508
vt 0.308666 0.102169
vt 0.681189 0.013096
vt 0.318400 0.099019
vt 0.687856 0.016438
vt 0.326917 0.096349
vt 0.695894 0.019267
vt 0.334893 0.093013
vt 0.704040 0.022821
vt 0.341623 0.089965
vt 0.713603 0.025769
vt 0.347198 0.086904
vt 0.724365 0.028318
vt 0.353210 0.081610
vt 0.733796 0.034153
vt 0.357864 0.076650
vt 0.744880 0.039519
vt 0.361691 0.071546
vt 0.756266 0.045557
vt 0.364183 0.066875
vt 0.769211 0.051381
vt 0.365689 0.062238
vt 0.788424 0.058638
vt 0.809265 0.065452
vt 0.367099 0.047911
vt 0.366152 0.042916
vt 0.743623 0.081055
vt 0.364007 0.037649
vt 0.733788 0.085694
vt 0.361421 0.032970
vt 0.724314 0.089867
vt 0.357634 0.027760
vt 0.038233 0.323963
vt 0.038233 0.000069
vt 0.303184 0.002969
vt 0.050286 0.674208
vt 0.167493 0.663652
vn -1.000000 -0.000000 0.000000
vn 0.000000 0.000000 -1.000000
vn 0.000000 0.000000 1.000000
vn 0.000000 -1.000000 0.000000
vn 0.000000 1.000000 0.000000
vn 1.000000 -0.000000 0.000000
vn -0.000000 -0.997700 -0.067200
vn 0.000000 -0.997700 0.067200
vn -0.000000 -0.979700 0.200300
vn -0.000000 -0.944600 0.328200
vn 0.000000 -0.893700 0.448600
vn -0.000000 -0.828600 0.559800
vn -0.000000 -0.750600 0.660700
vn -0.000000 -0.660700 0.750600
vn 0.000000 -0.559800 0.828600
vn 0.000000 -0.448600 0.893700
vn -0.000000 -0.328200 0.944600
vn -0.000000 -0.200300 0.979700
vn -0.000000 -0.067200 0.997700
vn 0.000000 0.067200 0.997700
vn -0.000000 0.200300 0.979700
vn -0.000000 0.328200 0.944600
vn 0.000000 0.448600 0.893700
vn -0.000000 0.559800 0.828600
vn -0.000000 0.660700 0.750600
vn 0.000000 0.750600 0.660700
vn 0.000000 0.828600 0.559800
vn 0.000000 0.893700 0.448600
vn 0.000000 0.944600 0.328200
vn 0.000000 0.979700 0.200300
vn 0.000000 0.997700 0.067200
vn 0.000000 0.997700 -0.067200
vn 0.000000 0.979700 -0.200300
vn -0.000000 0.944600 -0.328200
vn 0.000000 0.893700 -0.448600
vn -0.000000 0.828600 -0.559800
vn 0.000000 0.750600 -0.660700
vn -0.000000 0.660700 -0.750600
vn 0.000000 0.559800 -0.828600
vn 0.000000 0.448600 -0.893700
vn 0.000000 0.328200 -0.944600
vn 0.000000 0.200300 -0.979700
vn 0.000000 0.067200 -0.997700
vn -0.000000 -0.067200 -0.997700
vn 0.000000 -0.200300 -0.979700
vn 0.000000 -0.328200 -0.944600
vn -0.000000 -0.448600 -0.893700
vn 0.000000 -0.559800 -0.828600
vn -0.000000 -0.660700 -0.750600
vn 0.000000 -0.750600 -0.660700
vn 0.000000 -0.828600 -0.559800
vn -0.000000 -0.893700 -0.448600
vn -0.000000 -0.944600 -0.328200
vn 0.000000 -0.979700 -0.200300
usemtl None
s off
f 2/1/1 21/2/1 20/3/1
f 8/4/2 7/5/2 3/6/2
f 2/1/3 1/7/3 5/8/3
f 3/6/4 7/5/4 5/8/4
f 8/4/5 4/9/5 2/1/5
f 3/6/1 45/10/1 44/11/1
f 6/12/6 69/13/6 70/14/6
f 7/5/6 93/15/6 94/16/6
f 27/17/7 75/18/7 74/19/7
f 28/20/8 76/21/8 75/18/8
f 28/20/9 29/22/9 77/23/9
f 30/24/10 78/25/10 77/23/10
f 31/26/11 79/27/11 78/25/11
f 32/28/12 80/29/12 79/27/12
f 33/30/13 81/31/13 80/29/13
f 82/32/14 81/31/14 33/30/14
f 35/33/15 83/34/15 82/32/15
f 36/35/16 84/36/16 83/34/16
f 37/37/17 85/38/17 84/36/17
f 38/39/18 86/40/18 85/38/18
f 38/39/19 39/41/19 87/42/19
f 40/43/20 88/44/20 87/42/20
f 41/45/21 89/46/21 88/44/21
f 42/47/22 90/48/22 89/46/22
f 43/49/23 91/50/23 90/48/23
f 44/11/24 92/51/24 91/50/24
f 44/11/25 45/10/25 93/15/25
f 46/52/26 94/16/26 93/15/26
f 46/52/27 47/53/27 95/54/27
f 48/55/28 96/56/28 95/54/28
f 49/57/29 97/58/29 96/56/29
f 50/59/30 98/60/30 97/58/30
f 51/61/31 99/62/31 98/60/31
f 52/63/32 100/64/32 99/62/32
f 53/65/33 101/66/33 100/64/33
f 54/67/34 102/68/34 101/66/34
f 55/69/35 103/70/35 102/68/35
f 56/71/36 104/72/36 103/70/36
f 9/73/37 57/74/37 104/72/37
f 10/75/38 58/76/38 57/74/38
f 11/77/39 59/78/39 58/76/39
f 11/77/40 12/79/40 60/80/40
f 12/79/41 13/81/41 61/82/41
f 14/83/42 62/84/42 61/82/42
f 15/85/43 63/86/43 62/84/43
f 16/87/44 64/88/44 63/86/44
f 17/89/45 65/90/45 64/88/45
f 18/91/46 66/92/46 65/90/46
f 19/93/47 67/94/47 66/92/47
f 20/3/48 68/95/48 67/94/48
f 21/2/49 69/13/49 68/95/49
f 22/96/50 70/14/50 69/13/50
f 23/97/51 71/98/51 70/14/51
f 24/99/52 72/100/52 71/98/52
f 25/101/53 73/102/53 72/100/53
f 26/103/54 74/19/54 73/102/54
f 4/9/1 33/104/1 32/28/1
f 10/75/1 9/105/1 1/7/1
f 4/9/1 32/28/1 31/26/1
f 11/77/1 10/75/1 1/7/1
f 4/9/1 31/26/1 30/24/1
f 12/79/1 11/77/1 1/7/1
f 4/9/1 30/24/1 29/22/1
f 13/81/1 12/79/1 1/7/1
f 4/9/1 29/22/1 28/20/1
f 14/83/1 13/81/1 1/7/1
f 2/1/1 4/9/1 27/17/1
f 14/83/1 1/7/1 15/85/1
f 4/9/1 28/20/1 27/17/1
f 15/85/1 1/7/1 2/1/1
f 2/1/1 27/17/1 26/103/1
f 16/87/1 15/85/1 2/1/1
f 2/1/1 26/103/1 25/101/1
f 17/89/1 16/87/1 2/1/1
f 2/1/1 25/101/1 24/99/1
f 18/91/1 17/89/1 2/1/1
f 2/1/1 24/99/1 23/97/1
f 19/93/1 18/91/1 2/1/1
f 2/1/1 23/97/1 22/96/1
f 20/3/1 19/93/1 2/1/1
f 2/1/1 22/96/1 21/2/1
f 4/9/2 8/4/2 3/6/2
f 6/12/3 2/1/3 5/8/3
f 1/7/4 3/6/4 5/8/4
f 6/12/5 8/4/5 2/1/5
f 1/7/1 9/105/1 56/71/1
f 34/106/1 33/104/1 4/9/1
f 1/7/1 56/71/1 55/69/1
f 35/33/1 34/106/1 4/9/1
f 1/7/1 55/69/1 54/67/1
f 36/35/1 35/33/1 4/9/1
f 1/7/1 54/67/1 53/65/1
f 37/37/1 36/35/1 4/9/1
f 1/7/1 53/65/1 52/63/1
f 38/39/1 37/37/1 4/9/1
f 3/6/1 1/7/1 51/61/1
f 38/39/1 4/9/1 39/41/1
f 1/7/1 52/63/1 51/61/1
f 39/41/1 4/9/1 3/6/1
f 3/6/1 51/61/1 50/59/1
f 40/43/1 39/41/1 3/6/1
f 3/6/1 50/59/1 49/57/1
f 41/45/1 40/43/1 3/6/1
f 3/6/1 49/57/1 48/55/1
f 42/47/1 41/45/1 3/6/1
f 3/6/1 48/55/1 47/53/1
f 43/49/1 42/47/1 3/6/1
f 3/6/1 47/53/1 46/52/1
f 44/11/1 43/49/1 3/6/1
f 3/6/1 46/52/1 45/10/1
f 5/8/6 57/107/6 58/76/6
f 80/29/6 81/108/6 8/4/6
f 5/8/6 58/76/6 59/78/6
f 79/27/6 80/29/6 8/4/6
f 5/8/6 59/78/6 60/80/6
f 78/25/6 79/27/6 8/4/6
f 5/8/6 60/80/6 61/82/6
f 77/23/6 78/25/6 8/4/6
f 5/8/6 61/82/6 62/84/6
f 76/21/6 77/23/6 8/4/6
f 6/12/6 5/8/6 63/86/6
f 76/21/6 8/4/6 75/18/6
f 5/8/6 62/84/6 63/86/6
f 75/18/6 8/4/6 6/12/6
f 6/12/6 63/86/6 64/88/6
f 74/19/6 75/18/6 6/12/6
f 6/12/6 64/88/6 65/90/6
f 73/102/6 74/19/6 6/12/6
f 6/12/6 65/90/6 66/92/6
f 72/100/6 73/102/6 6/12/6
f 6/12/6 66/92/6 67/94/6
f 71/98/6 72/100/6 6/12/6
f 6/12/6 67/94/6 68/95/6
f 70/14/6 71/98/6 6/12/6
f 6/12/6 68/95/6 69/13/6
f 8/4/6 81/108/6 82/32/6
f 104/72/6 57/107/6 5/8/6
f 8/4/6 82/32/6 83/34/6
f 103/70/6 104/72/6 5/8/6
f 8/4/6 83/34/6 84/36/6
f 102/68/6 103/70/6 5/8/6
f 8/4/6 84/36/6 85/38/6
f 101/66/6 102/68/6 5/8/6
f 8/4/6 85/38/6 86/40/6
f 100/64/6 101/66/6 5/8/6
f 7/5/6 8/4/6 87/42/6
f 100/64/6 5/8/6 99/62/6
f 8/4/6 86/40/6 87/42/6
f 99/62/6 5/8/6 7/5/6
f 7/5/6 87/42/6 88/44/6
f 98/60/6 99/62/6 7/5/6
f 7/5/6 88/44/6 89/46/6
f 97/58/6 98/60/6 7/5/6
f 7/5/6 89/46/6 90/48/6
f 96/56/6 97/58/6 7/5/6
f 7/5/6 90/48/6 91/50/6
f 95/54/6 96/56/6 7/5/6
f 7/5/6 91/50/6 92/51/6
f 94/16/6 95/54/6 7/5/6
f 7/5/6 92/51/6 93/15/6
f 26/103/7 27/17/7 74/19/7
f 27/17/8 28/20/8 75/18/8
f 76/21/9 28/20/9 77/23/9
f 29/22/10 30/24/10 77/23/10
f 30/24/11 31/26/11 78/25/11
f 31/26/12 32/28/12 79/27/12
f 32/28/13 33/30/13 80/29/13
f 34/106/14 82/32/14 33/30/14
f 34/106/15 35/33/15 82/32/15
f 35/33/16 36/35/16 83/34/16
f 36/35/17 37/37/17 84/36/17
f 37/37/18 38/39/18 85/38/18
f 86/40/19 38/39/19 87/42/19
f 39/41/20 40/43/20 87/42/20
f 40/43/21 41/45/21 88/44/21
f 41/45/22 42/47/22 89/46/22
f 42/47/23 43/49/23 90/48/23
f 43/49/24 44/11/24 91/50/24
f 92/51/25 44/11/25 93/15/25
f 45/10/26 46/52/26 93/15/26
f 94/16/27 46/52/27 95/54/27
f 47/53/28 48/55/28 95/54/28
f 48/55/29 49/57/29 96/56/29
f 49/57/30 50/59/30 97/58/30
f 50/59/31 51/61/31 98/60/31
f 51/61/32 52/63/32 99/62/32
f 52/63/33 53/65/33 100/64/33
f 53/65/34 54/67/34 101/66/34
f 54/67/35 55/69/35 102/68/35
f 55/69/36 56/71/36 103/70/36
f 56/71/37 9/73/37 104/72/37
f 9/73/38 10/75/38 57/74/38
f 10/75/39 11/77/39 58/76/39
f 59/78/40 11/77/40 60/80/40
f 60/80/41 12/79/41 61/82/41
f 13/81/42 14/83/42 61/82/42
f 14/83/43 15/85/43 62/84/43
f 15/85/44 16/87/44 63/86/44
f 16/87/45 17/89/45 64/88/45
f 17/89/46 18/91/46 65/90/46
f 18/91/47 19/93/47 66/92/47
f 19/93/48 20/3/48 67/94/48
f 20/3/49 21/2/49 68/95/49
f 21/2/50 22/96/50 69/13/50
f 22/96/51 23/97/51 70/14/51
f 23/97/52 24/99/52 71/98/52
f 24/99/53 25/101/53 72/100/53
f 25/101/54 26/103/54 73/102/54
